<?xml version="1.0" encoding="UTF-8"?>
<svg xmlns="http://www.w3.org/2000/svg" id="Layer_1" data-name="Layer 1" version="1.1" viewBox="0 0 2000 437">
  <defs>
    <style>
      .cls-1 {
        isolation: isolate;
        opacity: .1;
      }

      .cls-1, .cls-2, .cls-3 {
        stroke-width: 0px;
      }

      .cls-1, .cls-3, .cls-4 {
        fill: #fff;
      }

      .cls-2, .cls-5 {
        fill: #7456f1;
      }

      .cls-5, .cls-4 {
        stroke: #fff;
        stroke-miterlimit: 10;
        stroke-width: 5px;
      }
    </style>
  </defs>
  <path class="cls-3" d="M1869.8,408.5H54V104.2c0-37.4,30.3-67.7,67.7-67.7h1815.8v304.3c0,37.4-30.3,67.7-67.7,67.7Z"></path>
  <path class="cls-2" d="M1869.8,408.5h-936.8v-243c0-71.2,57.8-129,129-129h875.5v304.3c0,37.4-30.3,67.7-67.7,67.7Z"></path>
  <path class="cls-1" d="M53.5,104.2v90c264.6,31.3,594.7,49.8,952.5,49.8s670.5-17.6,931.5-47.4V36.5H121.2c-37.4,0-67.7,30.3-67.7,67.7Z"></path>
  <g>
    <path class="cls-2" d="M169.2,132.5h78.7c8.6,0,16.7,1.4,24.2,4.1,7.5,2.7,14,6.5,19.5,11.2s9.9,10.4,13.1,16.7c3.2,6.4,4.8,13.2,4.8,20.5,0,10.7-2.6,19.6-7.7,26.8-5.2,7.2-11.6,12.7-19.3,16.4v2.2c10.3,3.8,18.6,9.6,24.9,17.6s9.4,17.8,9.4,29.6-1.7,16.3-5.2,23.2c-3.5,6.8-8.2,12.7-14.2,17.6s-13,8.6-21,11.2-16.5,3.9-25.7,3.9h-81.5v-201.2h0v.2ZM245.2,214.5c8.8,0,15.6-2.4,20.4-7.2,4.8-4.8,7.2-10.4,7.2-17s-2.4-12.2-7-16.9c-4.7-4.7-11.2-7-19.4-7h-39.1v48h37.9,0ZM249.4,298.8c9.6,0,16.9-2.4,21.9-7.2,5.1-4.8,7.6-10.9,7.6-18.4s-2.6-13.7-7.7-18.7c-5.2-5-12.8-7.4-22.9-7.4h-41.1v51.7h42.2Z"></path>
    <path class="cls-2" d="M346.1,132.5h38v86.2h2.2l73.7-86.2h45.8v2.2l-72.8,83.2,80.4,113.5v2.2h-46.4l-59.9-85.7-23.1,26.7v59h-38v-201.2h0Z"></path>
    <path class="cls-2" d="M534.2,333.6v-201.2h70.9c9.6,0,18.5,1.6,26.8,4.6,8.3,3.1,15.6,7.4,21.8,13.1,6.2,5.6,11.1,12.3,14.6,20.1,3.6,7.8,5.3,16.3,5.3,25.7s-1.8,18.2-5.3,26-8.4,14.5-14.6,20.1-13.5,10-21.8,13.1-17.3,4.6-26.8,4.6h-32.9v73.9h-38ZM605.6,223.8c9.9,0,17.4-2.8,22.5-8.4,5.1-5.6,7.6-12.1,7.6-19.4s-.6-7-1.8-10.4-3.1-6.3-5.6-8.9c-2.5-2.5-5.7-4.5-9.4-6s-8.2-2.2-13.2-2.2h-33.5v55.4h33.5,0Z"></path>
    <path class="cls-2" d="M700.7,132.5h38v86.2h2.2l73.7-86.2h45.8v2.2l-72.8,83.2,80.4,113.5v2.2h-46.4l-59.9-85.7-23.1,26.7v59h-38v-201.2h0Z"></path>
    <path class="cls-3" d="M984.4,132.5h41.1l41.6,121.1,7.3,25.8h2.2l7.9-25.9,43.3-121.1h41.1l-73.4,201.2h-39.9l-71.1-201.2h0Z"></path>
    <path class="cls-3" d="M1192.5,132.5h38v201.2h-38v-201.2h0Z"></path>
    <path class="cls-3" d="M1270.9,132.5h68.1c15.9,0,30.3,2.4,43,7.3,12.8,4.9,23.6,11.8,32.6,20.6,9,8.9,15.9,19.5,20.7,31.9s7.2,25.9,7.2,40.7-2.4,28.7-7.2,41-11.7,23-20.7,31.8-19.9,15.6-32.6,20.5-27.1,7.3-43,7.3h-68.1v-201.2h0ZM1337.3,297.7c11.1,0,20.8-1.5,29.2-4.6,8.4-3.1,15.5-7.5,21.1-13.1s9.8-12.4,12.7-20.4c2.8-8,4.2-16.8,4.2-26.6s-1.4-18.6-4.2-26.6c-2.8-8-7-14.8-12.7-20.4s-12.7-10-21.1-13.1-18.2-4.6-29.2-4.6h-28.4v129.2h28.4v.2Z"></path>
    <path class="cls-3" d="M1511,168.4v46.6h80.7v36h-80.7v46.6h89.7v36h-127.7v-201.2h127.7v36h-89.7Z"></path>
    <path class="cls-3" d="M1725.3,338.1c-15,0-28.9-2.7-41.8-8.1s-23.9-12.9-33.3-22.3c-9.4-9.5-16.7-20.6-22.1-33.4s-8-26.6-8-41.2,2.7-28.3,8-41.2,12.7-24,22.1-33.4c9.4-9.5,20.5-16.9,33.3-22.3,12.8-5.4,26.8-8.2,41.8-8.2s28.9,2.7,41.8,8.2c12.8,5.4,23.9,12.9,33.3,22.3,9.4,9.5,16.7,20.6,22.1,33.4,5.3,12.8,8,26.6,8,41.2s-2.7,28.3-8,41.2c-5.3,12.8-12.7,24-22.1,33.4-9.4,9.5-20.5,16.9-33.3,22.3-12.9,5.4-26.8,8.1-41.8,8.1ZM1725.3,302.1c9.4,0,18.1-1.7,26.3-5.1s15.3-8,21.4-14,10.9-13.2,14.3-21.8c3.5-8.5,5.2-17.9,5.2-28.2s-1.7-19.7-5.2-28.2-8.2-15.8-14.3-21.8-13.2-10.7-21.4-14.1-16.9-5.1-26.3-5.1-18.1,1.7-26.3,5.1-15.3,8.1-21.4,14.1-10.9,13.2-14.3,21.8-5.2,17.9-5.2,28.2,1.7,19.7,5.2,28.2,8.2,15.8,14.3,21.8c6.1,6,13.2,10.7,21.4,14,8.2,3.4,16.9,5.1,26.3,5.1Z"></path>
  </g>
  <g>
    <circle class="cls-5" cx="933.5" cy="244" r="47.5"></circle>
    <polygon class="cls-4" points="927.3 266.2 949.3 244.1 927.5 222.3 927.3 266.2"></polygon>
  </g>
</svg>
